Patient4_TMGait_0pt7_02_left_42_EMG.mot
version=1
nRows=37
nColumns=33
inDegrees=no
endheader
time	1LAddLong	2LGlutMax	3LGlutMed	4LIliopsoas	5LSemiMemb	6LBicFemLong	7LRecFem	8LVastMed	9LVastLat	10LGasMed	11LTibAnt	12lTibPost	13LPeroneusLong	14LSol	15LExtDigLong	16LFlexDigLong	17RAddLong	18RGlutMax	19RGlutMed	20RIliopsoas	21RSemiMemb	22RBicFemLong	23RRecFem	24RVastMed	25RVastLat	26RGasMed	27RTibAnt	28RTibPost	29RPeroneusLong	30RSol	31RExtDigLong	32RFlexDigLong
48.11	0.014648	0.84427	0.032196	0.004425	-0.02121	-0.026245	0.044098	0.011597	0.2977	-0.02594	0.20432	0.006104	0.03891	0.006714	-0.14648	-0.015564	-0.02121	0.021515	-0.22079	0.040436	0.059052	-0.1088	0.036011	-0.017853	-0.014496	0.011749	-0.53192	0.093689	0.090485	0.38635	-0.003204	-0.001373
48.111	0.003815	0.74127	0.040283	0.015869	-0.023499	-0.028839	0.041351	0.00946	0.30273	-0.012817	0.26108	0.00061	0.032959	-0.031128	0.074158	-0.022278	0.024719	0.033417	-0.075989	0.014648	-0.041504	-0.12329	-0.055237	-0.099335	-0.035858	0.003357	-0.41885	0.047913	-0.050812	-0.018311	0.003052	0.002747
48.112	0.000153	0.63065	-0.007782	0.050049	-0.015869	-0.030823	0.016785	0.015259	0.29907	0.004578	0.1889	0.004272	-0.01236	-0.01236	0.014496	-0.028992	0.037994	0.026398	0.05722	0.007477	-0.10178	-0.22705	-0.34851	-0.11139	0.023956	0.001221	-0.22644	-0.01236	0.02594	-0.5571	0.003052	-0.003204
48.113	0.00946	0.55313	-0.022736	0.048981	-0.025787	-0.031738	0.032959	0.019073	0.29663	0.025024	0.062561	0.018463	-0.046234	0.001831	0.094452	-0.026703	0.091553	0.013885	0.58807	-0.001373	-0.011902	-0.35706	-0.49194	-0.087891	0.15167	0.004425	0.06958	-0.045776	0.087585	-0.39398	0.003204	-0.004578
48.114	0.013733	0.47287	-0.009766	0.046844	-0.018616	-0.016785	0.032806	0.022278	0.29007	0.019379	0.048218	0.004425	-0.074921	-0.001831	0.12344	-0.043182	0.088501	0.02594	0.5249	-0.046844	0.17487	-0.34393	-0.33936	-0.024719	0.11078	0.02182	-0.065002	-0.059509	0.35614	-0.50919	0.001068	0.003815
48.115	0.014038	0.42923	-0.023041	0.016785	-0.013275	-0.016937	0.030823	0.020752	0.28122	0.016937	0.055542	0.002899	-0.033722	-0.030212	-0.026855	-0.034332	0.012054	0.093842	0.41977	-0.089111	-0.057526	-0.080872	-0.242	0.007477	0.018463	0.032806	0.23025	-0.075836	0.36087	-0.42572	-0.004578	0.002747
48.116	0.02594	0.37537	-0.023041	-0.027466	-0.026093	-0.013428	0.022125	0.018311	0.28336	0.002289	0.12833	0.009155	0.015869	-0.045929	-0.14053	-0.024109	-0.023193	0.16251	0.32135	-0.10315	-0.38238	0.1976	-0.24506	-0.080719	-0.078735	0.022583	0.61539	-0.040283	0.041046	-0.52734	0.002899	-0.016022
48.117	0.029449	0.31494	-0.02182	-0.039368	-0.029755	0.000305	0.002747	0.02533	0.2713	-0.031281	0.10376	-0.004425	0.112	-0.074921	-0.018921	-0.011139	-0.029449	0.17975	0.22842	-0.05661	-0.36468	0.24582	-0.28153	0.06546	0.038452	-0.003662	0.31296	-0.038757	-0.1384	-0.18723	0	-0.012207
48.118	0.017395	0.3009	-0.050354	-0.035095	-0.021667	-0.019073	-0.000916	0.015411	0.26413	-0.03418	0.12207	0.000153	0.10513	-0.088348	0.082092	-0.016785	-0.004272	0.20035	0.25528	0.005798	-0.27039	0.22217	-0.11917	0.11154	0.08606	-0.013123	0.087433	-0.054016	-0.099487	0.099792	-0.001678	-0.013733
48.119	0.016785	0.28564	-0.039673	-0.000458	-0.011749	-0.005035	0.004272	0.016174	0.26398	-0.040588	0.034637	0.00885	0.042877	-0.061493	0.016022	-0.012665	-0.001373	0.27496	-0.018311	0.058289	-0.36621	0.17593	0.000916	0.04364	0.03006	-0.002441	-0.40756	-0.061798	0.10666	-0.11108	-0.003052	-0.000916
48.12	0.016174	0.26703	-0.011749	-0.003815	-0.00824	-0.003052	0.006256	0.014038	0.2565	-0.079651	-0.16907	-0.005341	0.02243	0.013885	0.038452	-0.011597	-0.019684	0.27939	0.6044	0.022888	-0.48202	0.17273	-0.022125	0.073395	0.005798	0.003662	-0.39734	-0.074158	0.21927	-0.16892	0.003815	0.007629
48.121	0.019989	0.26428	0.029449	0.009003	-0.004883	-0.00351	0.020294	0.010223	0.24399	-0.12543	-0.093689	0.008545	-0.034943	0.020599	-0.067139	-0.00473	-0.088959	0.32867	0.60989	0.017395	-0.036621	0.29007	-0.070343	0.14969	0.023499	0.004883	-0.38528	-0.080109	0.22308	-0.28885	0.003052	-0.000305
48.122	0.00061	0.22903	0.03006	0.001984	-0.012054	-0.019989	0.029449	0.016479	0.24231	-0.085297	-0.032043	0.001373	-0.068512	-0.010376	-0.10284	-0.007477	-0.085449	0.28885	0.32028	0.040588	0.45731	0.052032	-0.018463	0.14786	-0.006561	0.014496	-0.3331	-0.08606	0.22492	-0.36316	0.011749	0.000916
48.123	-0.000763	0.20309	0.022583	0.024261	-0.014648	-0.023956	0.041809	0.011139	0.23025	0.014343	-0.031891	0	-0.048981	-0.021667	-0.018463	-0.005341	-0.03067	0.29617	0.38132	0.0354	0.4718	-0.36728	0.057678	0.14603	0.024719	-0.000763	-0.63324	-0.079498	0.089874	-0.13534	0.00061	0.001373
48.124	-0.002594	0.19867	0.017242	0.029907	-0.012207	-0.020447	0.050049	0.015106	0.23056	0.076904	-0.025024	0.00351	-0.04425	0.007172	0.14038	0.000305	-0.018616	0.27359	0.41016	-0.029907	0.28412	-0.40466	-0.005646	-0.001831	0.29999	-0.014954	-0.12421	-0.065918	-0.10635	0.20264	-0.000458	-0.000763
48.125	-0.005341	0.1535	-0.010376	0.037689	-0.003662	-0.020599	0.054016	0.016022	0.22079	0.088806	0.011444	0.002441	-0.062256	-0.005951	0.40558	0.005493	-0.008545	0.24139	0.46646	-0.12161	0.06897	-0.21042	-0.024872	-0.14526	0.31143	0.003204	0.52429	-0.064392	0.23392	0.1442	-0.001984	0.000458
48.126	-0.003815	0.11337	-0.02182	0.02182	-0.00946	-0.00946	0.059204	0.008545	0.22369	0.005188	0.031891	0.005341	-0.004272	0.000763	0.18646	0.001373	-0.016479	0.23651	0.20218	-0.20981	0.090485	0.11704	-0.050354	-0.23086	0.26855	-0.00946	0.68512	-0.073547	0.23575	-0.12695	-0.004578	0.005035
48.127	0.001068	0.10666	-0.009308	0.027466	-0.008698	-0.015411	0.041809	0.014191	0.21286	-0.054626	0.027008	0.006561	0.080414	-0.019531	-0.018921	0.008545	-0.049438	0.20828	-0.16464	-0.12634	0.015564	0.41885	-0.14999	-0.23163	0.2182	-0.018616	-0.15884	-0.087128	0.007324	-0.048981	-0.003204	-0.007935
48.128	0.002899	0.098724	-0.033875	0.028992	-0.010681	-0.033112	0.046539	0.010223	0.2063	-0.074615	0.026398	0.001984	0.073547	0.019836	-0.080719	-0.00412	-0.027313	0.25971	-0.2446	0.035858	-0.1004	0.31937	-0.29495	-0.1506	0.18402	-0.015564	-0.67963	-0.1004	0.073395	0.1329	-0.000153	-0.00061
48.129	0.000458	0.066223	-0.063934	0.028687	-0.001831	-0.004883	0.084076	0.014038	0.20279	-0.046387	0.022736	0.007782	0.02533	-0.05188	-0.16022	0.004578	-0.003052	0.21927	0.075989	0.20065	-0.089417	0.17059	-0.29114	0.036926	0.15656	-0.004272	-0.6311	-0.085297	0.2211	-0.10986	0.00061	-0.011292
48.13	0.005798	0.010071	-0.076294	0.016022	-0.002289	-0.017548	0.077057	0.011444	0.19226	0.024719	0.03067	0.00473	-0.014648	-0.11261	-0.11154	0.007172	-0.000458	0.1535	0.20203	0.22919	0.12528	0.050201	-0.12634	0.29175	-0.058594	-0.013885	-0.3775	-0.079651	0.28229	-0.36423	-0.000305	-0.013123
48.131	0.001221	-0.006866	-0.072021	0.017242	0.032501	-0.021362	0.069885	0.009613	0.18127	0.091248	0.042114	0.007172	-0.049591	-0.093536	0.13916	0.017395	0.006866	0.093079	0.25009	0.12848	0.17456	-0.04364	0.10086	0.18112	-0.43915	-0.038452	-0.22522	-0.084381	0.25635	-0.18173	0.000153	-0.014343
48.132	0.00824	-0.015411	0.007019	0.002136	-0.00412	-0.030212	0.071411	0.014496	0.17761	0.072021	0.019226	0.007477	-0.052185	-0.09491	0.1326	0.013275	0.019684	0.055542	0.53146	0.079193	-0.21088	-0.21545	0.18738	-0.014801	-0.54642	-0.081482	-0.12787	-0.066223	0.063171	0.43884	0.002747	-0.014496
48.133	-0.003357	-0.048676	-0.002441	-0.006714	-0.015717	-0.04837	0.071259	0.009766	0.17654	-0.007935	-0.024261	0.000763	-0.068817	-0.053406	0.012665	0.013123	0.024719	-0.005798	0.53818	0.034943	-0.28091	-0.53741	0.12634	-0.034027	-0.22766	-0.078888	-0.068359	-0.059204	0.020447	1.0068	0.001831	-0.00412
48.134	0.005035	-0.088806	0.011292	0.005493	-0.013275	-0.044556	0.066528	0.009155	0.15976	-0.058441	-0.061188	0.001984	-0.04776	-0.04776	-0.024109	0.011749	0.030365	-0.12375	0.32089	0.026093	-0.023804	-0.25681	0.19379	0.002136	-0.060883	-0.028534	0.01709	-0.045471	-0.025177	0.86304	0.000305	-0.004272
48.135	0.020142	-0.10422	-0.004578	0.014191	-0.014954	-0.062561	0.055389	0.012665	0.15137	-0.055389	0.028839	0.008545	-0.008698	-0.036316	-0.084991	0.005798	0.006714	-0.16327	-0.041962	0.017242	0.091858	-0.20599	0.22903	0.068817	-0.04425	0.04425	0.10132	-0.052185	0.035706	0.19196	0.001678	0.007935
48.136	0.02243	-0.097809	-0.010223	0.002289	-0.007477	-0.050964	0.058746	0.002747	0.15411	-0.010681	0.094147	0.010681	0.02182	-0.010223	-0.094604	0.016785	-0.00473	-0.11887	0.14847	-0.004272	-0.43427	-0.22156	0.20615	0.13382	-0.024567	0.04364	0.25223	-0.071106	-0.063171	-0.11139	0.001373	-0.002747
48.137	0.014954	-0.121	0.006561	-0.011749	-0.005951	-0.037689	0.057526	0.01236	0.15579	0.028534	0.057068	-0.007477	0.025482	-0.00946	0.32761	0.016785	0.027466	-0.11902	0.30868	-0.009155	-0.65201	-0.24216	0.13687	-0.002747	-0.035858	0.031586	0.41229	-0.054779	-0.092316	0.007477	0.001678	-0.009155
48.138	-0.004272	-0.10422	-0.002136	-0.002899	-0.005951	-0.038757	0.064545	0.002899	0.15228	0.042267	0.032043	0.001373	0.053711	-0.043945	0.085754	0.021362	0.02243	-0.1442	0.083923	-0.029755	-0.44373	-0.25971	-0.002441	-0.15656	-0.045624	-0.033417	0.41794	-0.04364	0.027924	0.20218	0.000458	-0.002441
48.139	0.02182	-0.14328	-0.000763	0.01358	-0.009155	-0.054474	0.069733	0.011292	0.1474	0.026398	0.05722	-0.000305	0.05661	-0.007629	0.4306	0.010681	-0.005341	-0.23315	0.13947	-0.15625	-0.26657	-0.12421	-0.19882	-0.14603	-0.024414	-0.074768	0.1294	-0.044403	0.11826	0.42404	-0.003052	-0.00061
48.14	0.018463	-0.18097	-0.013428	-0.005646	-0.014038	-0.048523	0.058441	0.004425	0.1416	0.001984	0.099487	-0.002899	0.034027	0.030975	0.019379	0.010376	-0.019989	-0.24918	0.11887	-0.2063	0.19226	0.14221	-0.17258	0.000153	-0.032196	-0.028839	-0.13321	-0.040283	-0.021973	0.3923	0.000763	-0.003357
48.141	0.008698	-0.19989	-0.02182	-0.001831	-0.000763	-0.042419	0.063019	0.008392	0.14328	-0.007782	0.067749	0.002289	-0.063782	0.040588	-0.18768	0.016632	-0.024567	-0.27557	0.10376	-0.16312	0.33829	0.15366	-0.030365	-0.012665	-0.03006	-0.029755	0.040131	-0.050964	-0.18738	0.18143	0.00061	-0.001526
48.142	0.018311	-0.24216	-0.021362	-0.003967	-0.002289	-0.016479	0.053864	0.01297	0.12772	-0.023193	-0.016174	-0.007019	-0.013428	0.065002	-0.41626	0.015411	0.011444	-0.27237	-0.015717	-0.009003	0.60532	0.12863	0.04364	0.008545	0.10452	-0.058289	-0.14358	-0.056	-0.1799	0.13519	0.000916	-0.004883
48.143	0.010529	-0.20691	-0.027008	-0.010986	0.005188	-0.017853	0.042725	0.005341	0.1297	-0.05127	-0.11429	-0.008392	0.088196	0.056458	-0.11169	0.013885	0.06897	-0.24185	0.1796	0.069275	0.45242	-0.039673	0.12222	-0.080414	0.13947	-0.095673	-0.4248	-0.053253	-0.049744	-0.36621	-0.001984	-0.004425
48.144	0.01358	-0.22995	-0.041199	0.009613	0.007172	-0.021667	0.059814	0.00473	0.12848	-0.053406	-0.08606	0.012207	0.15213	0.053558	-0.23972	0.007935	0.047455	-0.18997	0.084229	0.15213	0.18051	-0.11078	0.17563	-0.159	0.10696	0.082855	-0.64468	0.026855	-0.004425	-0.49286	0.000916	-0.011597
48.145	0.02182	-0.26733	-0.037384	-0.007477	-0.010986	-0.027618	0.055237	0.009155	0.12238	-0.029907	-0.055237	-0.015717	0.072784	0.015717	-0.14481	0.003357	0.007019	-0.28915	-0.33768	0.17853	-0.15564	-0.057831	0.2066	-0.20309	0.055084	0.086365	-0.6839	-0.030212	-0.11185	-0.7254	0.001068	-0.011139
48.146	0.018768	-0.29159	-0.035706	0.01358	-0.014038	-0.058136	0.059052	0.007172	0.12299	-0.001373	0.012665	-0.000458	0.005798	-0.004883	-0.067596	0.010986	-0.02533	-0.27741	-0.16281	0.040131	-0.2095	-0.17593	0.16022	-0.11322	0.055695	0.051727	-0.55557	-0.049896	-0.25681	-0.49591	-0.004272	-0.019531
